<svg xmlns="http://www.w3.org/2000/svg" xmlns:xlink="http://www.w3.org/1999/xlink" width="500" zoomAndPan="magnify" viewBox="0 0 375 374.999991" height="500" preserveAspectRatio="xMidYMid meet" version="1.0"><defs><g/><clipPath id="8096bcc9a8"><path d="M 53 101.429688 L 322 101.429688 L 322 239 L 53 239 Z M 53 101.429688 " clip-rule="nonzero"/></clipPath><clipPath id="e62ffdf908"><path d="M 303.378906 101.703125 L 71.621094 101.703125 C 61.433594 101.703125 53.027344 110.109375 53.027344 120.296875 L 53.027344 220.574219 C 53.027344 230.761719 61.433594 239.167969 71.621094 239.167969 L 303.378906 239.167969 C 313.566406 239.167969 321.972656 230.761719 321.972656 220.574219 L 321.972656 120.296875 C 321.972656 110.109375 313.566406 101.703125 303.378906 101.703125 Z M 317.867188 121.695312 L 317.867188 220.574219 C 317.867188 228.488281 311.292969 235.0625 303.378906 235.0625 L 71.621094 235.0625 C 63.707031 235.0625 57.132812 228.488281 57.132812 220.574219 L 57.132812 120.296875 C 57.132812 112.382812 63.707031 105.8125 71.621094 105.8125 L 303.378906 105.8125 C 311.292969 105.8125 317.867188 112.382812 317.867188 120.296875 Z M 317.867188 121.695312 " clip-rule="nonzero"/></clipPath></defs><g fill="#000000" fill-opacity="1"><g transform="translate(94.12375, 158.127587)"><g><path d="M 11.640625 -29.625 C 13.140625 -29.625 14.410156 -29.378906 15.453125 -28.890625 C 16.503906 -28.410156 17.269531 -27.960938 17.75 -27.546875 C 18.976562 -26.546875 19.722656 -27.21875 19.984375 -29.5625 L 21.28125 -29.5625 C 21.207031 -28.519531 21.148438 -27.28125 21.109375 -25.84375 C 21.078125 -24.40625 21.0625 -22.472656 21.0625 -20.046875 L 19.765625 -20.046875 C 19.546875 -21.429688 19.164062 -22.773438 18.625 -24.078125 C 18.082031 -25.390625 17.285156 -26.460938 16.234375 -27.296875 C 15.191406 -28.140625 13.832031 -28.5625 12.15625 -28.5625 C 10.84375 -28.5625 9.75 -28.195312 8.875 -27.46875 C 8 -26.738281 7.5625 -25.664062 7.5625 -24.25 C 7.5625 -23.125 7.894531 -22.160156 8.5625 -21.359375 C 9.238281 -20.554688 10.117188 -19.8125 11.203125 -19.125 C 12.285156 -18.4375 13.460938 -17.679688 14.734375 -16.859375 C 16.148438 -15.960938 17.4375 -15.046875 18.59375 -14.109375 C 19.75 -13.179688 20.671875 -12.15625 21.359375 -11.03125 C 22.054688 -9.914062 22.40625 -8.59375 22.40625 -7.0625 C 22.40625 -5.34375 21.957031 -3.90625 21.0625 -2.75 C 20.164062 -1.59375 19 -0.710938 17.5625 -0.109375 C 16.125 0.484375 14.546875 0.78125 12.828125 0.78125 C 12.003906 0.78125 11.226562 0.710938 10.5 0.578125 C 9.769531 0.453125 9.070312 0.257812 8.40625 0 C 8.03125 -0.1875 7.644531 -0.410156 7.25 -0.671875 C 6.851562 -0.929688 6.472656 -1.210938 6.109375 -1.515625 C 5.734375 -1.804688 5.394531 -1.796875 5.09375 -1.484375 C 4.789062 -1.171875 4.566406 -0.546875 4.421875 0.390625 L 3.140625 0.390625 C 3.210938 -0.804688 3.265625 -2.257812 3.296875 -3.96875 C 3.335938 -5.6875 3.359375 -7.96875 3.359375 -10.8125 L 4.640625 -10.8125 C 4.910156 -8.71875 5.285156 -6.882812 5.765625 -5.3125 C 6.253906 -3.75 7.019531 -2.53125 8.0625 -1.65625 C 9.101562 -0.78125 10.5625 -0.34375 12.4375 -0.34375 C 13.175781 -0.34375 13.925781 -0.507812 14.6875 -0.84375 C 15.457031 -1.175781 16.101562 -1.734375 16.625 -2.515625 C 17.15625 -3.304688 17.421875 -4.351562 17.421875 -5.65625 C 17.421875 -7.300781 16.820312 -8.644531 15.625 -9.6875 C 14.425781 -10.726562 12.914062 -11.828125 11.09375 -12.984375 C 9.75 -13.847656 8.488281 -14.707031 7.3125 -15.5625 C 6.132812 -16.425781 5.179688 -17.398438 4.453125 -18.484375 C 3.722656 -19.566406 3.359375 -20.875 3.359375 -22.40625 C 3.359375 -24.082031 3.738281 -25.453125 4.5 -26.515625 C 5.269531 -27.578125 6.289062 -28.359375 7.5625 -28.859375 C 8.832031 -29.367188 10.191406 -29.625 11.640625 -29.625 Z M 11.640625 -29.625 "/></g></g></g><g fill="#000000" fill-opacity="1"><g transform="translate(119.712251, 158.127587)"><g><path d="M 10.421875 -43.84375 L 10.421875 -22.90625 C 11.390625 -25.445312 12.738281 -27.203125 14.46875 -28.171875 C 16.207031 -29.140625 18.03125 -29.625 19.9375 -29.625 C 21.351562 -29.625 22.535156 -29.4375 23.484375 -29.0625 C 24.441406 -28.6875 25.238281 -28.164062 25.875 -27.5 C 26.582031 -26.75 27.082031 -25.8125 27.375 -24.6875 C 27.675781 -23.570312 27.828125 -22.0625 27.828125 -20.15625 L 27.828125 -5.203125 C 27.828125 -3.640625 28.15625 -2.578125 28.8125 -2.015625 C 29.46875 -1.453125 30.5625 -1.171875 32.09375 -1.171875 L 32.09375 0 C 31.457031 -0.0390625 30.484375 -0.0859375 29.171875 -0.140625 C 27.867188 -0.191406 26.601562 -0.21875 25.375 -0.21875 C 24.132812 -0.21875 22.925781 -0.191406 21.75 -0.140625 C 20.570312 -0.0859375 19.6875 -0.0390625 19.09375 0 L 19.09375 -1.171875 C 20.4375 -1.171875 21.390625 -1.453125 21.953125 -2.015625 C 22.515625 -2.578125 22.796875 -3.640625 22.796875 -5.203125 L 22.796875 -21.390625 C 22.796875 -22.546875 22.703125 -23.609375 22.515625 -24.578125 C 22.328125 -25.554688 21.90625 -26.34375 21.25 -26.9375 C 20.59375 -27.53125 19.59375 -27.828125 18.25 -27.828125 C 16.71875 -27.828125 15.363281 -27.394531 14.1875 -26.53125 C 13.019531 -25.675781 12.097656 -24.484375 11.421875 -22.953125 C 10.753906 -21.421875 10.421875 -19.671875 10.421875 -17.703125 L 10.421875 -5.203125 C 10.421875 -3.640625 10.695312 -2.578125 11.25 -2.015625 C 11.8125 -1.453125 12.765625 -1.171875 14.109375 -1.171875 L 14.109375 0 C 13.515625 -0.0390625 12.628906 -0.0859375 11.453125 -0.140625 C 10.273438 -0.191406 9.070312 -0.21875 7.84375 -0.21875 C 6.601562 -0.21875 5.332031 -0.191406 4.03125 -0.140625 C 2.726562 -0.0859375 1.757812 -0.0390625 1.125 0 L 1.125 -1.171875 C 2.65625 -1.171875 3.742188 -1.453125 4.390625 -2.015625 C 5.046875 -2.578125 5.375 -3.640625 5.375 -5.203125 L 5.375 -37.125 C 5.375 -38.800781 5.070312 -40.039062 4.46875 -40.84375 C 3.875 -41.65625 2.757812 -42.0625 1.125 -42.0625 L 1.125 -43.234375 C 2.3125 -43.117188 3.46875 -43.0625 4.59375 -43.0625 C 5.675781 -43.0625 6.710938 -43.125 7.703125 -43.25 C 8.691406 -43.382812 9.597656 -43.582031 10.421875 -43.84375 Z M 10.421875 -43.84375 "/></g></g></g><g fill="#000000" fill-opacity="1"><g transform="translate(153.195653, 158.127587)"><g><path d="M 27.046875 -29.453125 L 27.046875 -6.046875 C 27.046875 -4.367188 27.351562 -3.128906 27.96875 -2.328125 C 28.582031 -1.523438 29.691406 -1.125 31.296875 -1.125 L 31.296875 0.0625 C 30.140625 -0.0507812 28.984375 -0.109375 27.828125 -0.109375 C 26.742188 -0.109375 25.707031 -0.0546875 24.71875 0.046875 C 23.726562 0.160156 22.828125 0.367188 22.015625 0.671875 L 22.015625 -5.9375 C 21.078125 -3.507812 19.757812 -1.78125 18.0625 -0.75 C 16.363281 0.269531 14.617188 0.78125 12.828125 0.78125 C 11.515625 0.78125 10.375 0.59375 9.40625 0.21875 C 8.4375 -0.15625 7.632812 -0.675781 7 -1.34375 C 6.289062 -2.09375 5.804688 -3.0625 5.546875 -4.25 C 5.285156 -5.445312 5.15625 -6.925781 5.15625 -8.6875 L 5.15625 -22.734375 C 5.15625 -24.410156 4.851562 -25.648438 4.25 -26.453125 C 3.65625 -27.253906 2.535156 -27.65625 0.890625 -27.65625 L 0.890625 -28.84375 C 2.085938 -28.726562 3.25 -28.671875 4.375 -28.671875 C 5.445312 -28.671875 6.476562 -28.734375 7.46875 -28.859375 C 8.457031 -28.992188 9.363281 -29.191406 10.1875 -29.453125 L 10.1875 -7.453125 C 10.1875 -6.296875 10.257812 -5.226562 10.40625 -4.25 C 10.5625 -3.28125 10.9375 -2.5 11.53125 -1.90625 C 12.132812 -1.3125 13.109375 -1.015625 14.453125 -1.015625 C 15.898438 -1.015625 17.191406 -1.460938 18.328125 -2.359375 C 19.472656 -3.253906 20.375 -4.460938 21.03125 -5.984375 C 21.6875 -7.515625 22.015625 -9.234375 22.015625 -11.140625 L 22.015625 -22.734375 C 22.015625 -24.410156 21.710938 -25.648438 21.109375 -26.453125 C 20.515625 -27.253906 19.394531 -27.65625 17.75 -27.65625 L 17.75 -28.84375 C 18.945312 -28.726562 20.101562 -28.671875 21.21875 -28.671875 C 22.300781 -28.671875 23.335938 -28.734375 24.328125 -28.859375 C 25.316406 -28.992188 26.222656 -29.191406 27.046875 -29.453125 Z M 27.046875 -29.453125 "/></g></g></g><g fill="#000000" fill-opacity="1"><g transform="translate(186.287107, 158.127587)"><g><path d="M 10.640625 -38.140625 L 10.640625 -28.78125 L 18.921875 -28.78125 L 18.921875 -27.65625 L 10.640625 -27.65625 L 10.640625 -5.984375 C 10.640625 -4.234375 10.957031 -3.003906 11.59375 -2.296875 C 12.226562 -1.585938 13.101562 -1.234375 14.21875 -1.234375 C 15.34375 -1.234375 16.316406 -1.6875 17.140625 -2.59375 C 17.960938 -3.507812 18.671875 -5.050781 19.265625 -7.21875 L 20.390625 -6.9375 C 20.015625 -4.78125 19.273438 -2.953125 18.171875 -1.453125 C 17.066406 0.0351562 15.378906 0.78125 13.109375 0.78125 C 11.835938 0.78125 10.789062 0.617188 9.96875 0.296875 C 9.144531 -0.015625 8.414062 -0.46875 7.78125 -1.0625 C 6.957031 -1.925781 6.382812 -2.953125 6.0625 -4.140625 C 5.75 -5.335938 5.59375 -6.925781 5.59375 -8.90625 L 5.59375 -27.65625 L 0.21875 -27.65625 L 0.21875 -28.78125 L 5.59375 -28.78125 L 5.59375 -37.359375 C 6.53125 -37.390625 7.425781 -37.460938 8.28125 -37.578125 C 9.144531 -37.691406 9.929688 -37.878906 10.640625 -38.140625 Z M 10.640625 -38.140625 "/></g></g></g><g fill="#000000" fill-opacity="1"><g transform="translate(206.66834, 158.127587)"><g><path d="M 10.640625 -38.140625 L 10.640625 -28.78125 L 18.921875 -28.78125 L 18.921875 -27.65625 L 10.640625 -27.65625 L 10.640625 -5.984375 C 10.640625 -4.234375 10.957031 -3.003906 11.59375 -2.296875 C 12.226562 -1.585938 13.101562 -1.234375 14.21875 -1.234375 C 15.34375 -1.234375 16.316406 -1.6875 17.140625 -2.59375 C 17.960938 -3.507812 18.671875 -5.050781 19.265625 -7.21875 L 20.390625 -6.9375 C 20.015625 -4.78125 19.273438 -2.953125 18.171875 -1.453125 C 17.066406 0.0351562 15.378906 0.78125 13.109375 0.78125 C 11.835938 0.78125 10.789062 0.617188 9.96875 0.296875 C 9.144531 -0.015625 8.414062 -0.46875 7.78125 -1.0625 C 6.957031 -1.925781 6.382812 -2.953125 6.0625 -4.140625 C 5.75 -5.335938 5.59375 -6.925781 5.59375 -8.90625 L 5.59375 -27.65625 L 0.21875 -27.65625 L 0.21875 -28.78125 L 5.59375 -28.78125 L 5.59375 -37.359375 C 6.53125 -37.390625 7.425781 -37.460938 8.28125 -37.578125 C 9.144531 -37.691406 9.929688 -37.878906 10.640625 -38.140625 Z M 10.640625 -38.140625 "/></g></g></g><g fill="#000000" fill-opacity="1"><g transform="translate(227.04958, 158.127587)"><g><path d="M 15.234375 -29.625 C 18.515625 -29.625 21.078125 -28.625 22.921875 -26.625 C 24.773438 -24.625 25.703125 -21.515625 25.703125 -17.296875 L 5.9375 -17.296875 L 5.875 -18.375 L 20.328125 -18.375 C 20.398438 -20.195312 20.25 -21.882812 19.875 -23.4375 C 19.5 -24.988281 18.910156 -26.226562 18.109375 -27.15625 C 17.304688 -28.09375 16.273438 -28.5625 15.015625 -28.5625 C 13.296875 -28.5625 11.769531 -27.703125 10.4375 -25.984375 C 9.113281 -24.265625 8.320312 -21.539062 8.0625 -17.8125 L 8.234375 -17.578125 C 8.160156 -17.023438 8.101562 -16.410156 8.0625 -15.734375 C 8.03125 -15.066406 8.015625 -14.394531 8.015625 -13.71875 C 8.015625 -11.175781 8.421875 -8.988281 9.234375 -7.15625 C 10.054688 -5.332031 11.128906 -3.941406 12.453125 -2.984375 C 13.785156 -2.035156 15.160156 -1.5625 16.578125 -1.5625 C 17.691406 -1.5625 18.753906 -1.738281 19.765625 -2.09375 C 20.773438 -2.445312 21.707031 -3.035156 22.5625 -3.859375 C 23.425781 -4.679688 24.175781 -5.785156 24.8125 -7.171875 L 25.921875 -6.71875 C 25.515625 -5.488281 24.84375 -4.296875 23.90625 -3.140625 C 22.976562 -1.984375 21.800781 -1.039062 20.375 -0.3125 C 18.957031 0.414062 17.316406 0.78125 15.453125 0.78125 C 12.765625 0.78125 10.457031 0.164062 8.53125 -1.0625 C 6.613281 -2.289062 5.140625 -4 4.109375 -6.1875 C 3.085938 -8.375 2.578125 -10.882812 2.578125 -13.71875 C 2.578125 -17 3.097656 -19.828125 4.140625 -22.203125 C 5.191406 -24.578125 6.664062 -26.40625 8.5625 -27.6875 C 10.46875 -28.976562 12.691406 -29.625 15.234375 -29.625 Z M 15.234375 -29.625 "/></g></g></g><g fill="#000000" fill-opacity="1"><g transform="translate(255.941618, 158.127587)"><g><path d="M 19.046875 -29.625 C 20.046875 -29.625 20.925781 -29.414062 21.6875 -29 C 22.457031 -28.59375 23.054688 -28.0625 23.484375 -27.40625 C 23.921875 -26.757812 24.140625 -26.023438 24.140625 -25.203125 C 24.140625 -24.265625 23.847656 -23.441406 23.265625 -22.734375 C 22.691406 -22.023438 21.914062 -21.671875 20.9375 -21.671875 C 20.15625 -21.671875 19.460938 -21.921875 18.859375 -22.421875 C 18.265625 -22.929688 17.96875 -23.648438 17.96875 -24.578125 C 17.96875 -25.285156 18.164062 -25.890625 18.5625 -26.390625 C 18.957031 -26.898438 19.394531 -27.304688 19.875 -27.609375 C 19.613281 -27.984375 19.222656 -28.171875 18.703125 -28.171875 C 17.546875 -28.171875 16.484375 -27.820312 15.515625 -27.125 C 14.546875 -26.4375 13.722656 -25.550781 13.046875 -24.46875 C 12.378906 -23.382812 11.859375 -22.234375 11.484375 -21.015625 C 11.109375 -19.804688 10.921875 -18.679688 10.921875 -17.640625 L 10.921875 -5.765625 C 10.921875 -3.941406 11.453125 -2.71875 12.515625 -2.09375 C 13.578125 -1.476562 15.023438 -1.171875 16.859375 -1.171875 L 16.859375 0 C 15.992188 -0.0390625 14.773438 -0.0859375 13.203125 -0.140625 C 11.640625 -0.191406 9.984375 -0.21875 8.234375 -0.21875 C 6.960938 -0.21875 5.703125 -0.191406 4.453125 -0.140625 C 3.203125 -0.0859375 2.257812 -0.0390625 1.625 0 L 1.625 -1.171875 C 3.15625 -1.171875 4.242188 -1.453125 4.890625 -2.015625 C 5.546875 -2.578125 5.875 -3.640625 5.875 -5.203125 L 5.875 -22.734375 C 5.875 -24.410156 5.578125 -25.648438 4.984375 -26.453125 C 4.390625 -27.253906 3.269531 -27.65625 1.625 -27.65625 L 1.625 -28.84375 C 2.820312 -28.726562 3.976562 -28.671875 5.09375 -28.671875 C 6.175781 -28.671875 7.210938 -28.734375 8.203125 -28.859375 C 9.191406 -28.992188 10.097656 -29.191406 10.921875 -29.453125 L 10.921875 -22.453125 C 11.328125 -23.535156 11.910156 -24.628906 12.671875 -25.734375 C 13.441406 -26.835938 14.367188 -27.757812 15.453125 -28.5 C 16.535156 -29.25 17.734375 -29.625 19.046875 -29.625 Z M 19.046875 -29.625 "/></g></g></g><g fill="#000000" fill-opacity="1"><g transform="translate(112.908905, 221.877583)"><g><path d="M 18.25 -29.625 C 21.3125 -29.625 23.847656 -28.363281 25.859375 -25.84375 C 27.878906 -23.320312 28.890625 -19.503906 28.890625 -14.390625 C 28.890625 -11.035156 28.320312 -8.226562 27.1875 -5.96875 C 26.050781 -3.707031 24.53125 -2.015625 22.625 -0.890625 C 20.71875 0.222656 18.644531 0.78125 16.40625 0.78125 C 14.539062 0.78125 12.738281 0.25 11 -0.8125 C 9.269531 -1.875 7.972656 -3.453125 7.109375 -5.546875 L 8.234375 -4.921875 C 9.160156 -3.429688 10.316406 -2.320312 11.703125 -1.59375 C 13.085938 -0.863281 14.503906 -0.5 15.953125 -0.5 C 18.460938 -0.5 20.34375 -1.628906 21.59375 -3.890625 C 22.84375 -6.148438 23.46875 -9.648438 23.46875 -14.390625 C 23.46875 -17.410156 23.222656 -19.925781 22.734375 -21.9375 C 22.253906 -23.957031 21.507812 -25.460938 20.5 -26.453125 C 19.488281 -27.441406 18.195312 -27.9375 16.625 -27.9375 C 14.914062 -27.9375 13.320312 -27.160156 11.84375 -25.609375 C 10.363281 -24.066406 9.457031 -21.800781 9.125 -18.8125 L 8.453125 -19.59375 C 8.867188 -22.769531 9.976562 -25.234375 11.78125 -26.984375 C 13.59375 -28.742188 15.75 -29.625 18.25 -29.625 Z M 9.515625 -43.84375 L 9.515625 -2.90625 C 9.035156 -2.5 8.539062 -2.082031 8.03125 -1.65625 C 7.53125 -1.226562 7.035156 -0.804688 6.546875 -0.390625 C 6.066406 0.015625 5.566406 0.441406 5.046875 0.890625 L 4.09375 0.5 C 4.238281 -0.0195312 4.335938 -0.550781 4.390625 -1.09375 C 4.453125 -1.632812 4.484375 -2.1875 4.484375 -2.75 L 4.484375 -37.125 C 4.484375 -38.800781 4.179688 -40.039062 3.578125 -40.84375 C 2.984375 -41.65625 1.863281 -42.0625 0.21875 -42.0625 L 0.21875 -43.234375 C 1.414062 -43.117188 2.578125 -43.0625 3.703125 -43.0625 C 4.773438 -43.0625 5.804688 -43.125 6.796875 -43.25 C 7.785156 -43.382812 8.691406 -43.582031 9.515625 -43.84375 Z M 9.515625 -43.84375 "/></g></g></g><g fill="#000000" fill-opacity="1"><g transform="translate(144.9925, 221.877583)"><g><path d="M 19.046875 -29.625 C 20.046875 -29.625 20.925781 -29.414062 21.6875 -29 C 22.457031 -28.59375 23.054688 -28.0625 23.484375 -27.40625 C 23.921875 -26.757812 24.140625 -26.023438 24.140625 -25.203125 C 24.140625 -24.265625 23.847656 -23.441406 23.265625 -22.734375 C 22.691406 -22.023438 21.914062 -21.671875 20.9375 -21.671875 C 20.15625 -21.671875 19.460938 -21.921875 18.859375 -22.421875 C 18.265625 -22.929688 17.96875 -23.648438 17.96875 -24.578125 C 17.96875 -25.285156 18.164062 -25.890625 18.5625 -26.390625 C 18.957031 -26.898438 19.394531 -27.304688 19.875 -27.609375 C 19.613281 -27.984375 19.222656 -28.171875 18.703125 -28.171875 C 17.546875 -28.171875 16.484375 -27.820312 15.515625 -27.125 C 14.546875 -26.4375 13.722656 -25.550781 13.046875 -24.46875 C 12.378906 -23.382812 11.859375 -22.234375 11.484375 -21.015625 C 11.109375 -19.804688 10.921875 -18.679688 10.921875 -17.640625 L 10.921875 -5.765625 C 10.921875 -3.941406 11.453125 -2.71875 12.515625 -2.09375 C 13.578125 -1.476562 15.023438 -1.171875 16.859375 -1.171875 L 16.859375 0 C 15.992188 -0.0390625 14.773438 -0.0859375 13.203125 -0.140625 C 11.640625 -0.191406 9.984375 -0.21875 8.234375 -0.21875 C 6.960938 -0.21875 5.703125 -0.191406 4.453125 -0.140625 C 3.203125 -0.0859375 2.257812 -0.0390625 1.625 0 L 1.625 -1.171875 C 3.15625 -1.171875 4.242188 -1.453125 4.890625 -2.015625 C 5.546875 -2.578125 5.875 -3.640625 5.875 -5.203125 L 5.875 -22.734375 C 5.875 -24.410156 5.578125 -25.648438 4.984375 -26.453125 C 4.390625 -27.253906 3.269531 -27.65625 1.625 -27.65625 L 1.625 -28.84375 C 2.820312 -28.726562 3.976562 -28.671875 5.09375 -28.671875 C 6.175781 -28.671875 7.210938 -28.734375 8.203125 -28.859375 C 9.191406 -28.992188 10.097656 -29.191406 10.921875 -29.453125 L 10.921875 -22.453125 C 11.328125 -23.535156 11.910156 -24.628906 12.671875 -25.734375 C 13.441406 -26.835938 14.367188 -27.757812 15.453125 -28.5 C 16.535156 -29.25 17.734375 -29.625 19.046875 -29.625 Z M 19.046875 -29.625 "/></g></g></g><g fill="#000000" fill-opacity="1"><g transform="translate(170.469021, 221.877583)"><g><path d="M 27.046875 -29.453125 L 27.046875 -6.046875 C 27.046875 -4.367188 27.351562 -3.128906 27.96875 -2.328125 C 28.582031 -1.523438 29.691406 -1.125 31.296875 -1.125 L 31.296875 0.0625 C 30.140625 -0.0507812 28.984375 -0.109375 27.828125 -0.109375 C 26.742188 -0.109375 25.707031 -0.0546875 24.71875 0.046875 C 23.726562 0.160156 22.828125 0.367188 22.015625 0.671875 L 22.015625 -5.9375 C 21.078125 -3.507812 19.757812 -1.78125 18.0625 -0.75 C 16.363281 0.269531 14.617188 0.78125 12.828125 0.78125 C 11.515625 0.78125 10.375 0.59375 9.40625 0.21875 C 8.4375 -0.15625 7.632812 -0.675781 7 -1.34375 C 6.289062 -2.09375 5.804688 -3.0625 5.546875 -4.25 C 5.285156 -5.445312 5.15625 -6.925781 5.15625 -8.6875 L 5.15625 -22.734375 C 5.15625 -24.410156 4.851562 -25.648438 4.25 -26.453125 C 3.65625 -27.253906 2.535156 -27.65625 0.890625 -27.65625 L 0.890625 -28.84375 C 2.085938 -28.726562 3.25 -28.671875 4.375 -28.671875 C 5.445312 -28.671875 6.476562 -28.734375 7.46875 -28.859375 C 8.457031 -28.992188 9.363281 -29.191406 10.1875 -29.453125 L 10.1875 -7.453125 C 10.1875 -6.296875 10.257812 -5.226562 10.40625 -4.25 C 10.5625 -3.28125 10.9375 -2.5 11.53125 -1.90625 C 12.132812 -1.3125 13.109375 -1.015625 14.453125 -1.015625 C 15.898438 -1.015625 17.191406 -1.460938 18.328125 -2.359375 C 19.472656 -3.253906 20.375 -4.460938 21.03125 -5.984375 C 21.6875 -7.515625 22.015625 -9.234375 22.015625 -11.140625 L 22.015625 -22.734375 C 22.015625 -24.410156 21.710938 -25.648438 21.109375 -26.453125 C 20.515625 -27.253906 19.394531 -27.65625 17.75 -27.65625 L 17.75 -28.84375 C 18.945312 -28.726562 20.101562 -28.671875 21.21875 -28.671875 C 22.300781 -28.671875 23.335938 -28.734375 24.328125 -28.859375 C 25.316406 -28.992188 26.222656 -29.191406 27.046875 -29.453125 Z M 27.046875 -29.453125 "/></g></g></g><g fill="#000000" fill-opacity="1"><g transform="translate(203.560475, 221.877583)"><g><path d="M 10.421875 -43.84375 L 10.421875 -22.90625 C 11.390625 -25.445312 12.738281 -27.203125 14.46875 -28.171875 C 16.207031 -29.140625 18.03125 -29.625 19.9375 -29.625 C 21.351562 -29.625 22.535156 -29.4375 23.484375 -29.0625 C 24.441406 -28.6875 25.238281 -28.164062 25.875 -27.5 C 26.582031 -26.75 27.082031 -25.8125 27.375 -24.6875 C 27.675781 -23.570312 27.828125 -22.0625 27.828125 -20.15625 L 27.828125 -5.203125 C 27.828125 -3.640625 28.15625 -2.578125 28.8125 -2.015625 C 29.46875 -1.453125 30.5625 -1.171875 32.09375 -1.171875 L 32.09375 0 C 31.457031 -0.0390625 30.484375 -0.0859375 29.171875 -0.140625 C 27.867188 -0.191406 26.601562 -0.21875 25.375 -0.21875 C 24.132812 -0.21875 22.925781 -0.191406 21.75 -0.140625 C 20.570312 -0.0859375 19.6875 -0.0390625 19.09375 0 L 19.09375 -1.171875 C 20.4375 -1.171875 21.390625 -1.453125 21.953125 -2.015625 C 22.515625 -2.578125 22.796875 -3.640625 22.796875 -5.203125 L 22.796875 -21.390625 C 22.796875 -22.546875 22.703125 -23.609375 22.515625 -24.578125 C 22.328125 -25.554688 21.90625 -26.34375 21.25 -26.9375 C 20.59375 -27.53125 19.59375 -27.828125 18.25 -27.828125 C 16.71875 -27.828125 15.363281 -27.394531 14.1875 -26.53125 C 13.019531 -25.675781 12.097656 -24.484375 11.421875 -22.953125 C 10.753906 -21.421875 10.421875 -19.671875 10.421875 -17.703125 L 10.421875 -5.203125 C 10.421875 -3.640625 10.695312 -2.578125 11.25 -2.015625 C 11.8125 -1.453125 12.765625 -1.171875 14.109375 -1.171875 L 14.109375 0 C 13.515625 -0.0390625 12.628906 -0.0859375 11.453125 -0.140625 C 10.273438 -0.191406 9.070312 -0.21875 7.84375 -0.21875 C 6.601562 -0.21875 5.332031 -0.191406 4.03125 -0.140625 C 2.726562 -0.0859375 1.757812 -0.0390625 1.125 0 L 1.125 -1.171875 C 2.65625 -1.171875 3.742188 -1.453125 4.390625 -2.015625 C 5.046875 -2.578125 5.375 -3.640625 5.375 -5.203125 L 5.375 -37.125 C 5.375 -38.800781 5.070312 -40.039062 4.46875 -40.84375 C 3.875 -41.65625 2.757812 -42.0625 1.125 -42.0625 L 1.125 -43.234375 C 2.3125 -43.117188 3.46875 -43.0625 4.59375 -43.0625 C 5.675781 -43.0625 6.710938 -43.125 7.703125 -43.25 C 8.691406 -43.382812 9.597656 -43.582031 10.421875 -43.84375 Z M 10.421875 -43.84375 "/></g></g></g><g fill="#000000" fill-opacity="1"><g transform="translate(237.043877, 221.877583)"><g><path d="M 11.640625 -29.625 C 13.140625 -29.625 14.410156 -29.378906 15.453125 -28.890625 C 16.503906 -28.410156 17.269531 -27.960938 17.75 -27.546875 C 18.976562 -26.546875 19.722656 -27.21875 19.984375 -29.5625 L 21.28125 -29.5625 C 21.207031 -28.519531 21.148438 -27.28125 21.109375 -25.84375 C 21.078125 -24.40625 21.0625 -22.472656 21.0625 -20.046875 L 19.765625 -20.046875 C 19.546875 -21.429688 19.164062 -22.773438 18.625 -24.078125 C 18.082031 -25.390625 17.285156 -26.460938 16.234375 -27.296875 C 15.191406 -28.140625 13.832031 -28.5625 12.15625 -28.5625 C 10.84375 -28.5625 9.75 -28.195312 8.875 -27.46875 C 8 -26.738281 7.5625 -25.664062 7.5625 -24.25 C 7.5625 -23.125 7.894531 -22.160156 8.5625 -21.359375 C 9.238281 -20.554688 10.117188 -19.8125 11.203125 -19.125 C 12.285156 -18.4375 13.460938 -17.679688 14.734375 -16.859375 C 16.148438 -15.960938 17.4375 -15.046875 18.59375 -14.109375 C 19.75 -13.179688 20.671875 -12.15625 21.359375 -11.03125 C 22.054688 -9.914062 22.40625 -8.59375 22.40625 -7.0625 C 22.40625 -5.34375 21.957031 -3.90625 21.0625 -2.75 C 20.164062 -1.59375 19 -0.710938 17.5625 -0.109375 C 16.125 0.484375 14.546875 0.78125 12.828125 0.78125 C 12.003906 0.78125 11.226562 0.710938 10.5 0.578125 C 9.769531 0.453125 9.070312 0.257812 8.40625 0 C 8.03125 -0.1875 7.644531 -0.410156 7.25 -0.671875 C 6.851562 -0.929688 6.472656 -1.210938 6.109375 -1.515625 C 5.734375 -1.804688 5.394531 -1.796875 5.09375 -1.484375 C 4.789062 -1.171875 4.566406 -0.546875 4.421875 0.390625 L 3.140625 0.390625 C 3.210938 -0.804688 3.265625 -2.257812 3.296875 -3.96875 C 3.335938 -5.6875 3.359375 -7.96875 3.359375 -10.8125 L 4.640625 -10.8125 C 4.910156 -8.71875 5.285156 -6.882812 5.765625 -5.3125 C 6.253906 -3.75 7.019531 -2.53125 8.0625 -1.65625 C 9.101562 -0.78125 10.5625 -0.34375 12.4375 -0.34375 C 13.175781 -0.34375 13.925781 -0.507812 14.6875 -0.84375 C 15.457031 -1.175781 16.101562 -1.734375 16.625 -2.515625 C 17.15625 -3.304688 17.421875 -4.351562 17.421875 -5.65625 C 17.421875 -7.300781 16.820312 -8.644531 15.625 -9.6875 C 14.425781 -10.726562 12.914062 -11.828125 11.09375 -12.984375 C 9.75 -13.847656 8.488281 -14.707031 7.3125 -15.5625 C 6.132812 -16.425781 5.179688 -17.398438 4.453125 -18.484375 C 3.722656 -19.566406 3.359375 -20.875 3.359375 -22.40625 C 3.359375 -24.082031 3.738281 -25.453125 4.5 -26.515625 C 5.269531 -27.578125 6.289062 -28.359375 7.5625 -28.859375 C 8.832031 -29.367188 10.191406 -29.625 11.640625 -29.625 Z M 11.640625 -29.625 "/></g></g></g><g clip-path="url(#8096bcc9a8)"><g clip-path="url(#e62ffdf908)"><path fill="#000000" d="M 53.300781 101.976562 L 321.699219 101.976562 L 321.699219 238.777344 L 53.300781 238.777344 Z M 53.300781 101.976562 " fill-opacity="1" fill-rule="nonzero"/></g></g><g fill="#000000" fill-opacity="1"><g transform="translate(91.395467, 268.222365)"><g><path d="M 5.453125 -6.203125 C 5.953125 -6.203125 6.390625 -6.269531 6.765625 -6.40625 C 7.148438 -6.539062 7.472656 -6.722656 7.734375 -6.953125 C 7.992188 -7.191406 8.1875 -7.476562 8.3125 -7.8125 C 8.445312 -8.144531 8.515625 -8.507812 8.515625 -8.90625 C 8.515625 -9.726562 8.257812 -10.367188 7.75 -10.828125 C 7.25 -11.285156 6.484375 -11.515625 5.453125 -11.515625 L 3.390625 -11.515625 L 3.390625 -6.203125 Z M 5.453125 -12.890625 C 6.265625 -12.890625 6.972656 -12.796875 7.578125 -12.609375 C 8.179688 -12.421875 8.679688 -12.148438 9.078125 -11.796875 C 9.472656 -11.453125 9.769531 -11.035156 9.96875 -10.546875 C 10.164062 -10.054688 10.265625 -9.507812 10.265625 -8.90625 C 10.265625 -8.300781 10.15625 -7.75 9.9375 -7.25 C 9.726562 -6.75 9.421875 -6.316406 9.015625 -5.953125 C 8.617188 -5.597656 8.117188 -5.320312 7.515625 -5.125 C 6.921875 -4.925781 6.234375 -4.828125 5.453125 -4.828125 L 3.390625 -4.828125 L 3.390625 0 L 1.640625 0 L 1.640625 -12.890625 Z M 5.453125 -12.890625 "/></g></g></g><g fill="#000000" fill-opacity="1"><g transform="translate(107.784537, 268.222365)"><g><path d="M 12.09375 -12.890625 L 12.09375 0 L 10.34375 0 L 10.34375 -5.875 L 3.390625 -5.875 L 3.390625 0 L 1.640625 0 L 1.640625 -12.890625 L 3.390625 -12.890625 L 3.390625 -7.140625 L 10.34375 -7.140625 L 10.34375 -12.890625 Z M 12.09375 -12.890625 "/></g></g></g><g fill="#000000" fill-opacity="1"><g transform="translate(127.107632, 268.222365)"><g><path d="M 13.5625 -6.4375 C 13.5625 -5.476562 13.40625 -4.59375 13.09375 -3.78125 C 12.789062 -2.976562 12.359375 -2.285156 11.796875 -1.703125 C 11.242188 -1.117188 10.578125 -0.664062 9.796875 -0.34375 C 9.015625 -0.0195312 8.148438 0.140625 7.203125 0.140625 C 6.253906 0.140625 5.390625 -0.0195312 4.609375 -0.34375 C 3.828125 -0.664062 3.15625 -1.117188 2.59375 -1.703125 C 2.039062 -2.285156 1.609375 -2.976562 1.296875 -3.78125 C 0.992188 -4.59375 0.84375 -5.476562 0.84375 -6.4375 C 0.84375 -7.40625 0.992188 -8.289062 1.296875 -9.09375 C 1.609375 -9.90625 2.039062 -10.601562 2.59375 -11.1875 C 3.15625 -11.769531 3.828125 -12.222656 4.609375 -12.546875 C 5.390625 -12.878906 6.253906 -13.046875 7.203125 -13.046875 C 8.148438 -13.046875 9.015625 -12.878906 9.796875 -12.546875 C 10.578125 -12.222656 11.242188 -11.769531 11.796875 -11.1875 C 12.359375 -10.601562 12.789062 -9.90625 13.09375 -9.09375 C 13.40625 -8.289062 13.5625 -7.40625 13.5625 -6.4375 Z M 11.765625 -6.4375 C 11.765625 -7.226562 11.65625 -7.9375 11.4375 -8.5625 C 11.226562 -9.195312 10.925781 -9.734375 10.53125 -10.171875 C 10.132812 -10.609375 9.65625 -10.941406 9.09375 -11.171875 C 8.53125 -11.410156 7.898438 -11.53125 7.203125 -11.53125 C 6.515625 -11.53125 5.882812 -11.410156 5.3125 -11.171875 C 4.75 -10.941406 4.269531 -10.609375 3.875 -10.171875 C 3.476562 -9.734375 3.171875 -9.195312 2.953125 -8.5625 C 2.734375 -7.9375 2.625 -7.226562 2.625 -6.4375 C 2.625 -5.644531 2.734375 -4.9375 2.953125 -4.3125 C 3.171875 -3.6875 3.476562 -3.15625 3.875 -2.71875 C 4.269531 -2.28125 4.75 -1.945312 5.3125 -1.71875 C 5.882812 -1.488281 6.515625 -1.375 7.203125 -1.375 C 7.898438 -1.375 8.53125 -1.488281 9.09375 -1.71875 C 9.65625 -1.945312 10.132812 -2.28125 10.53125 -2.71875 C 10.925781 -3.15625 11.226562 -3.6875 11.4375 -4.3125 C 11.65625 -4.9375 11.765625 -5.644531 11.765625 -6.4375 Z M 11.765625 -6.4375 "/></g></g></g><g fill="#000000" fill-opacity="1"><g transform="translate(147.096725, 268.222365)"><g><path d="M 10.375 -11.4375 L 6.1875 -11.4375 L 6.1875 0 L 4.453125 0 L 4.453125 -11.4375 L 0.265625 -11.4375 L 0.265625 -12.890625 L 10.375 -12.890625 Z M 10.375 -11.4375 "/></g></g></g><g fill="#000000" fill-opacity="1"><g transform="translate(163.305804, 268.222365)"><g><path d="M 13.5625 -6.4375 C 13.5625 -5.476562 13.40625 -4.59375 13.09375 -3.78125 C 12.789062 -2.976562 12.359375 -2.285156 11.796875 -1.703125 C 11.242188 -1.117188 10.578125 -0.664062 9.796875 -0.34375 C 9.015625 -0.0195312 8.148438 0.140625 7.203125 0.140625 C 6.253906 0.140625 5.390625 -0.0195312 4.609375 -0.34375 C 3.828125 -0.664062 3.15625 -1.117188 2.59375 -1.703125 C 2.039062 -2.285156 1.609375 -2.976562 1.296875 -3.78125 C 0.992188 -4.59375 0.84375 -5.476562 0.84375 -6.4375 C 0.84375 -7.40625 0.992188 -8.289062 1.296875 -9.09375 C 1.609375 -9.90625 2.039062 -10.601562 2.59375 -11.1875 C 3.15625 -11.769531 3.828125 -12.222656 4.609375 -12.546875 C 5.390625 -12.878906 6.253906 -13.046875 7.203125 -13.046875 C 8.148438 -13.046875 9.015625 -12.878906 9.796875 -12.546875 C 10.578125 -12.222656 11.242188 -11.769531 11.796875 -11.1875 C 12.359375 -10.601562 12.789062 -9.90625 13.09375 -9.09375 C 13.40625 -8.289062 13.5625 -7.40625 13.5625 -6.4375 Z M 11.765625 -6.4375 C 11.765625 -7.226562 11.65625 -7.9375 11.4375 -8.5625 C 11.226562 -9.195312 10.925781 -9.734375 10.53125 -10.171875 C 10.132812 -10.609375 9.65625 -10.941406 9.09375 -11.171875 C 8.53125 -11.410156 7.898438 -11.53125 7.203125 -11.53125 C 6.515625 -11.53125 5.882812 -11.410156 5.3125 -11.171875 C 4.75 -10.941406 4.269531 -10.609375 3.875 -10.171875 C 3.476562 -9.734375 3.171875 -9.195312 2.953125 -8.5625 C 2.734375 -7.9375 2.625 -7.226562 2.625 -6.4375 C 2.625 -5.644531 2.734375 -4.9375 2.953125 -4.3125 C 3.171875 -3.6875 3.476562 -3.15625 3.875 -2.71875 C 4.269531 -2.28125 4.75 -1.945312 5.3125 -1.71875 C 5.882812 -1.488281 6.515625 -1.375 7.203125 -1.375 C 7.898438 -1.375 8.53125 -1.488281 9.09375 -1.71875 C 9.65625 -1.945312 10.132812 -2.28125 10.53125 -2.71875 C 10.925781 -3.15625 11.226562 -3.6875 11.4375 -4.3125 C 11.65625 -4.9375 11.765625 -5.644531 11.765625 -6.4375 Z M 11.765625 -6.4375 "/></g></g></g><g fill="#000000" fill-opacity="1"><g transform="translate(183.2949, 268.222365)"><g><path d="M 12.125 -6.203125 L 12.125 -1.25 C 11.476562 -0.78125 10.785156 -0.429688 10.046875 -0.203125 C 9.316406 0.0234375 8.507812 0.140625 7.625 0.140625 C 6.59375 0.140625 5.660156 -0.015625 4.828125 -0.328125 C 3.992188 -0.648438 3.28125 -1.101562 2.6875 -1.6875 C 2.09375 -2.269531 1.632812 -2.960938 1.3125 -3.765625 C 1 -4.578125 0.84375 -5.46875 0.84375 -6.4375 C 0.84375 -7.425781 0.992188 -8.320312 1.296875 -9.125 C 1.609375 -9.9375 2.050781 -10.632812 2.625 -11.21875 C 3.195312 -11.800781 3.890625 -12.25 4.703125 -12.5625 C 5.523438 -12.882812 6.4375 -13.046875 7.4375 -13.046875 C 7.945312 -13.046875 8.421875 -13.003906 8.859375 -12.921875 C 9.296875 -12.847656 9.703125 -12.738281 10.078125 -12.59375 C 10.453125 -12.457031 10.796875 -12.289062 11.109375 -12.09375 C 11.429688 -11.894531 11.726562 -11.664062 12 -11.40625 L 11.515625 -10.625 C 11.429688 -10.5 11.328125 -10.421875 11.203125 -10.390625 C 11.085938 -10.359375 10.953125 -10.382812 10.796875 -10.46875 C 10.648438 -10.5625 10.484375 -10.664062 10.296875 -10.78125 C 10.117188 -10.90625 9.894531 -11.019531 9.625 -11.125 C 9.351562 -11.238281 9.035156 -11.332031 8.671875 -11.40625 C 8.316406 -11.488281 7.890625 -11.53125 7.390625 -11.53125 C 6.660156 -11.53125 6 -11.410156 5.40625 -11.171875 C 4.820312 -10.929688 4.320312 -10.59375 3.90625 -10.15625 C 3.5 -9.71875 3.179688 -9.179688 2.953125 -8.546875 C 2.734375 -7.921875 2.625 -7.21875 2.625 -6.4375 C 2.625 -5.632812 2.738281 -4.910156 2.96875 -4.265625 C 3.207031 -3.628906 3.539062 -3.085938 3.96875 -2.640625 C 4.394531 -2.191406 4.910156 -1.847656 5.515625 -1.609375 C 6.128906 -1.378906 6.820312 -1.265625 7.59375 -1.265625 C 8.1875 -1.265625 8.710938 -1.332031 9.171875 -1.46875 C 9.640625 -1.601562 10.097656 -1.789062 10.546875 -2.03125 L 10.546875 -4.875 L 8.546875 -4.875 C 8.429688 -4.875 8.335938 -4.90625 8.265625 -4.96875 C 8.191406 -5.03125 8.15625 -5.113281 8.15625 -5.21875 L 8.15625 -6.203125 Z M 12.125 -6.203125 "/></g></g></g><g fill="#000000" fill-opacity="1"><g transform="translate(202.023985, 268.222365)"><g><path d="M 5.21875 -6.65625 C 5.71875 -6.65625 6.160156 -6.710938 6.546875 -6.828125 C 6.941406 -6.953125 7.269531 -7.125 7.53125 -7.34375 C 7.789062 -7.570312 7.984375 -7.84375 8.109375 -8.15625 C 8.242188 -8.46875 8.3125 -8.816406 8.3125 -9.203125 C 8.3125 -9.960938 8.054688 -10.535156 7.546875 -10.921875 C 7.046875 -11.316406 6.296875 -11.515625 5.296875 -11.515625 L 3.390625 -11.515625 L 3.390625 -6.65625 Z M 11.171875 0 L 9.625 0 C 9.3125 0 9.078125 -0.125 8.921875 -0.375 L 5.578125 -4.984375 C 5.472656 -5.117188 5.363281 -5.21875 5.25 -5.28125 C 5.132812 -5.34375 4.953125 -5.375 4.703125 -5.375 L 3.390625 -5.375 L 3.390625 0 L 1.640625 0 L 1.640625 -12.890625 L 5.296875 -12.890625 C 6.109375 -12.890625 6.8125 -12.804688 7.40625 -12.640625 C 8 -12.484375 8.488281 -12.25 8.875 -11.9375 C 9.257812 -11.625 9.546875 -11.242188 9.734375 -10.796875 C 9.921875 -10.359375 10.015625 -9.867188 10.015625 -9.328125 C 10.015625 -8.867188 9.941406 -8.441406 9.796875 -8.046875 C 9.648438 -7.648438 9.441406 -7.289062 9.171875 -6.96875 C 8.898438 -6.65625 8.566406 -6.390625 8.171875 -6.171875 C 7.785156 -5.953125 7.34375 -5.785156 6.84375 -5.671875 C 7.0625 -5.546875 7.253906 -5.363281 7.421875 -5.125 Z M 11.171875 0 "/></g></g></g><g fill="#000000" fill-opacity="1"><g transform="translate(218.881063, 268.222365)"><g><path d="M 8.5 -4.78125 L 6.46875 -10.03125 C 6.40625 -10.1875 6.34375 -10.367188 6.28125 -10.578125 C 6.21875 -10.785156 6.15625 -11.003906 6.09375 -11.234375 C 5.96875 -10.753906 5.835938 -10.351562 5.703125 -10.03125 L 3.6875 -4.78125 Z M 12.125 0 L 10.78125 0 C 10.625 0 10.5 -0.0351562 10.40625 -0.109375 C 10.3125 -0.191406 10.238281 -0.289062 10.1875 -0.40625 L 8.984375 -3.53125 L 3.1875 -3.53125 L 1.984375 -0.40625 C 1.953125 -0.300781 1.882812 -0.207031 1.78125 -0.125 C 1.675781 -0.0390625 1.550781 0 1.40625 0 L 0.046875 0 L 5.21875 -12.890625 L 6.96875 -12.890625 Z M 12.125 0 "/></g></g></g><g fill="#000000" fill-opacity="1"><g transform="translate(236.647144, 268.222365)"><g><path d="M 5.453125 -6.203125 C 5.953125 -6.203125 6.390625 -6.269531 6.765625 -6.40625 C 7.148438 -6.539062 7.472656 -6.722656 7.734375 -6.953125 C 7.992188 -7.191406 8.1875 -7.476562 8.3125 -7.8125 C 8.445312 -8.144531 8.515625 -8.507812 8.515625 -8.90625 C 8.515625 -9.726562 8.257812 -10.367188 7.75 -10.828125 C 7.25 -11.285156 6.484375 -11.515625 5.453125 -11.515625 L 3.390625 -11.515625 L 3.390625 -6.203125 Z M 5.453125 -12.890625 C 6.265625 -12.890625 6.972656 -12.796875 7.578125 -12.609375 C 8.179688 -12.421875 8.679688 -12.148438 9.078125 -11.796875 C 9.472656 -11.453125 9.769531 -11.035156 9.96875 -10.546875 C 10.164062 -10.054688 10.265625 -9.507812 10.265625 -8.90625 C 10.265625 -8.300781 10.15625 -7.75 9.9375 -7.25 C 9.726562 -6.75 9.421875 -6.316406 9.015625 -5.953125 C 8.617188 -5.597656 8.117188 -5.320312 7.515625 -5.125 C 6.921875 -4.925781 6.234375 -4.828125 5.453125 -4.828125 L 3.390625 -4.828125 L 3.390625 0 L 1.640625 0 L 1.640625 -12.890625 Z M 5.453125 -12.890625 "/></g></g></g><g fill="#000000" fill-opacity="1"><g transform="translate(253.036216, 268.222365)"><g><path d="M 12.09375 -12.890625 L 12.09375 0 L 10.34375 0 L 10.34375 -5.875 L 3.390625 -5.875 L 3.390625 0 L 1.640625 0 L 1.640625 -12.890625 L 3.390625 -12.890625 L 3.390625 -7.140625 L 10.34375 -7.140625 L 10.34375 -12.890625 Z M 12.09375 -12.890625 "/></g></g></g><g fill="#000000" fill-opacity="1"><g transform="translate(272.359312, 268.222365)"><g><path d="M 6.484375 -5.140625 L 6.484375 0 L 4.75 0 L 4.75 -5.140625 L 0.015625 -12.890625 L 1.546875 -12.890625 C 1.703125 -12.890625 1.820312 -12.851562 1.90625 -12.78125 C 2 -12.707031 2.082031 -12.609375 2.15625 -12.484375 L 5.109375 -7.484375 C 5.210938 -7.265625 5.304688 -7.0625 5.390625 -6.875 C 5.484375 -6.695312 5.566406 -6.519531 5.640625 -6.34375 C 5.703125 -6.519531 5.773438 -6.695312 5.859375 -6.875 C 5.941406 -7.0625 6.035156 -7.265625 6.140625 -7.484375 L 9.078125 -12.484375 C 9.128906 -12.585938 9.203125 -12.679688 9.296875 -12.765625 C 9.398438 -12.847656 9.523438 -12.890625 9.671875 -12.890625 L 11.21875 -12.890625 Z M 6.484375 -5.140625 "/></g></g></g></svg>